<svg width="177" height="219" viewBox="0 0 177 219" fill="none" xmlns="http://www.w3.org/2000/svg">
<path fill-rule="evenodd" clip-rule="evenodd" d="M63.082 195.09C63.082 175.984 78.5835 160.5 97.7095 160.5C116.836 160.5 132.337 175.984 132.337 195.09C132.337 214.196 116.836 229.681 97.7095 229.681C78.5835 229.681 63.082 214.196 63.082 195.09ZM79.4026 195.09C79.4026 205.195 87.5936 213.377 97.7095 213.377C107.825 213.377 116.016 205.195 116.016 195.09C116.016 184.985 107.825 176.803 97.7095 176.803C87.5936 176.803 79.4026 184.985 79.4026 195.09Z" fill="#F8F8F8"/>
<path fill-rule="evenodd" clip-rule="evenodd" d="M125.392 132.807L12.7148 132.827L13.2459 130.32C14.7984 122.84 16.6573 117.395 20.947 109.257C25.2368 101.12 47.4004 60.8228 47.4004 60.8228L41.9871 57.35C41.9871 57.35 48.769 46.6027 52.3642 41.7326C55.9798 36.8419 63.9465 28.0674 98.1009 28.0674H147.29L125.392 132.807ZM39.3112 91.5644H60.2287C60.2287 91.5644 65.9075 87.3929 72.4442 85.6668C84.4963 82.5022 99.8781 83.879 99.8781 83.879L105.659 56.2198H65.9688C59.1869 56.2198 57.5323 59.0967 56.1228 61.5626L39.3112 91.5644Z" fill="#F8F8F8"/>
<path fill-rule="evenodd" clip-rule="evenodd" d="M130.127 132.828L153.07 23.271H96.9219L188.999 0L161.161 132.828H130.127Z" fill="#F8F8F8"/>
<path fill-rule="evenodd" clip-rule="evenodd" d="M11.9737 136.781H160.275L157.987 148.011H90.5175C73.2313 148.011 56.0882 162.97 52.2468 181.432L47.772 202.799H9.19483C2.5133 202.799 -0.755947 197.978 0.326993 192.785L11.9737 136.781Z" fill="#F8F8F8"/>
</svg>
